<svg xmlns="http://www.w3.org/2000/svg" viewBox="0 0 217.42674255371094 56.799278259277344">  <g transform="matrix(1 0 0 1 -83.73002624511719 -36.48095703125)"> <g> <g> <g is="lm-picture">  <g transform="matrix(1.1404566249716896 -0.0008316268070885412 0.0008316693032468909 1.1404564848571668 106.03970520084061 5.24463356309037)"> <g transform="matrix(0.004653818988819224 -1.1611149004192434 1.1611150997911401 0.004654665570798197 16.6268384117864 132.35223283862794)">  <path fill="#88be66" fill-opacity="1" d="M55.702 0c16.567 0-27.97 100 4.202 100"/> </g><g transform="matrix(0.020612658168676055 1.1609397384162286 -1.1609415774065326 0.0206131564614616 130.7377700689035 -28.118286199745214)">  <path fill="#88be66" fill-opacity="1" d="M55.702 0c16.567 0-27.97 100 4.202 100"/> </g> </g> </g><g is="lm-text" transform="matrix(1.9345928807215318 0 0 1.9345930404558433 60.837340165491575 65.21707025478679)">   <path fill="#ffffff" fill-opacity="1" d="M17.277777777777786,-5.611111111111109C18.555555555555564,-5.611111111111109,19.222222222222232,-4.8888888888888875,19.3888888888889,-3.444444444444443C19.3888888888889,-3.277777777777775,19.444444444444454,-3.111111111111109,19.444444444444454,-2.944444444444443C19.444444444444454,-1.2222222222222205,18.722222222222232,-0.2777777777777759,17.333333333333343,-0.1666666666666652C17.333333333333343,-0.1666666666666652,17.11111111111112,-0.1666666666666652,17.11111111111112,-0.1666666666666652C17.11111111111112,-0.1666666666666652,15.833333333333343,-0.1666666666666652,15.833333333333343,-0.1666666666666652C15.833333333333343,-0.1666666666666652,15.833333333333343,-5.611111111111109,15.833333333333343,-5.611111111111109C15.833333333333343,-5.611111111111109,17.277777777777786,-5.611111111111109,17.277777777777786,-5.611111111111109C17.277777777777786,-5.611111111111109,17.277777777777786,-5.611111111111109,17.277777777777786,-5.611111111111109M17.777777777777786,5.555555555555557C17.722222222222232,5.222222222222224,17.500000000000007,5.055555555555557,17.222222222222232,5.055555555555557C17.222222222222232,5.055555555555557,15.833333333333343,5.055555555555557,15.833333333333343,5.055555555555557C15.833333333333343,5.055555555555557,15.833333333333343,0.38888888888889106,15.833333333333343,0.38888888888889106C15.833333333333343,0.38888888888889106,17.444444444444454,0.38888888888889106,17.444444444444454,0.38888888888889106C19.666666666666675,0.38888888888889106,21.055555555555564,-0.2777777777777759,21.666666666666675,-1.611111111111109C21.8888888888889,-2.0555555555555536,22.000000000000007,-2.4999999999999982,22.000000000000007,-3.0555555555555536C22.000000000000007,-4.277777777777775,21.444444444444454,-5.166666666666664,20.333333333333343,-5.72222222222222C19.722222222222232,-5.999999999999998,19.000000000000007,-6.166666666666664,18.11111111111112,-6.166666666666664C18.11111111111112,-6.166666666666664,11.833333333333343,-6.166666666666664,11.833333333333343,-6.166666666666664C11.833333333333343,-6.166666666666664,11.833333333333343,-5.611111111111109,11.833333333333343,-5.611111111111109C11.833333333333343,-5.611111111111109,13.388888888888898,-5.611111111111109,13.388888888888898,-5.611111111111109C13.388888888888898,-5.611111111111109,13.388888888888898,5.055555555555557,13.388888888888898,5.055555555555557C13.388888888888898,5.055555555555557,11.833333333333343,5.055555555555557,11.833333333333343,5.055555555555557C11.833333333333343,5.055555555555557,11.833333333333343,5.555555555555557,11.833333333333343,5.555555555555557C11.833333333333343,5.555555555555557,17.777777777777786,5.555555555555557,17.777777777777786,5.555555555555557C17.777777777777786,5.555555555555557,17.777777777777786,5.555555555555557,17.777777777777786,5.555555555555557M27.2777777777778,5.055555555555557C27.2777777777778,5.055555555555557,26.2777777777778,5.055555555555557,26.2777777777778,5.055555555555557C26.2777777777778,5.055555555555557,26.2777777777778,2.055555555555557,26.2777777777778,2.055555555555557C26.2777777777778,2.055555555555557,27.05555555555558,1.3333333333333348,27.05555555555558,1.3333333333333348C27.05555555555558,1.3333333333333348,29.55555555555558,5.555555555555557,29.55555555555558,5.555555555555557C29.55555555555558,5.555555555555557,32.61111111111113,5.555555555555557,32.61111111111113,5.555555555555557C32.61111111111113,5.2777777777777795,32.50000000000002,5.055555555555557,32.33333333333336,5.055555555555557C32.33333333333336,5.055555555555557,32.11111111111113,5.055555555555557,32.11111111111113,5.055555555555557C32.11111111111113,5.055555555555557,31.666666666666686,5.055555555555557,31.666666666666686,5.055555555555557C31.666666666666686,5.055555555555557,28.55555555555558,-0.05555555555555358,28.55555555555558,-0.05555555555555358C28.55555555555558,-0.05555555555555358,30.111111111111132,-1.5555555555555536,30.111111111111132,-1.5555555555555536C30.55555555555558,-1.9999999999999982,30.944444444444464,-2.2222222222222205,31.16666666666669,-2.277777777777776C31.2777777777778,-2.277777777777776,31.38888888888891,-2.3333333333333313,31.50000000000002,-2.3333333333333313C31.7777777777778,-2.3333333333333313,32.00000000000002,-2.3888888888888866,32.00000000000002,-2.611111111111109C32.00000000000002,-2.611111111111109,32.00000000000002,-2.777777777777775,32.00000000000002,-2.777777777777775C32.00000000000002,-2.777777777777775,28.66666666666669,-2.777777777777775,28.66666666666669,-2.777777777777775C28.66666666666669,-2.777777777777775,28.66666666666669,-2.3333333333333313,28.66666666666669,-2.3333333333333313C28.66666666666669,-2.3333333333333313,30.111111111111132,-2.3333333333333313,30.111111111111132,-2.3333333333333313C30.111111111111132,-2.3333333333333313,26.2777777777778,1.2777777777777795,26.2777777777778,1.2777777777777795C26.2777777777778,1.2777777777777795,26.2777777777778,-7.166666666666664,26.2777777777778,-7.166666666666664C26.2777777777778,-7.166666666666664,22.66666666666669,-7.166666666666664,22.66666666666669,-7.166666666666664C22.66666666666669,-7.166666666666664,22.66666666666669,-6.611111111111109,22.66666666666669,-6.611111111111109C22.66666666666669,-6.611111111111109,24.16666666666669,-6.611111111111109,24.16666666666669,-6.611111111111109C24.16666666666669,-6.611111111111109,24.16666666666669,4.000000000000002,24.16666666666669,4.000000000000002C24.16666666666669,4.6111111111111125,23.88888888888891,4.88888888888889,23.2777777777778,5.000000000000002C23.111111111111132,5.000000000000002,22.88888888888891,5.055555555555557,22.66666666666669,5.055555555555557C22.66666666666669,5.055555555555557,22.66666666666669,5.555555555555557,22.66666666666669,5.555555555555557C22.66666666666669,5.555555555555557,27.722222222222243,5.555555555555557,27.722222222222243,5.555555555555557C27.722222222222243,5.2777777777777795,27.66666666666669,5.055555555555557,27.444444444444464,5.055555555555557C27.444444444444464,5.055555555555557,27.2777777777778,5.055555555555557,27.2777777777778,5.055555555555557C27.2777777777778,5.055555555555557,27.2777777777778,5.055555555555557,27.2777777777778,5.055555555555557M42.27777777777777,2.3333333333333353C42.27777777777777,1.222222222222224,41.666666666666664,0.3333333333333348,40.44444444444444,-0.44444444444444287C40.27777777777777,-0.5555555555555536,39.55555555555555,-0.8888888888888866,38.33333333333333,-1.4999999999999982C37.22222222222222,-2.0555555555555536,36.55555555555555,-2.5555555555555536,36.27777777777777,-3.111111111111109C36.11111111111111,-3.3888888888888875,36.05555555555555,-3.7222222222222197,36.05555555555555,-3.9999999999999982C36.05555555555555,-4.777777777777775,36.388888888888886,-5.33333333333333,37.166666666666664,-5.611111111111109C37.44444444444444,-5.72222222222222,37.77777777777777,-5.777777777777775,38.11111111111111,-5.777777777777775C39.166666666666664,-5.777777777777775,40,-5.444444444444443,40.55555555555555,-4.666666666666664C40.94444444444444,-4.166666666666664,41.11111111111111,-3.4999999999999982,41.11111111111111,-2.777777777777775C41.11111111111111,-2.777777777777775,41.77777777777777,-2.777777777777775,41.77777777777777,-2.777777777777775C41.77777777777777,-2.777777777777775,41.77777777777777,-6.277777777777775,41.77777777777777,-6.277777777777775C41.388888888888886,-6.277777777777775,41.222222222222214,-6.111111111111109,41.166666666666664,-5.8888888888888875C41.166666666666664,-5.8888888888888875,41.166666666666664,-5.611111111111109,41.166666666666664,-5.611111111111109C40.11111111111111,-6.111111111111109,39,-6.33333333333333,37.83333333333333,-6.33333333333333C36.33333333333333,-6.33333333333333,35.166666666666664,-5.999999999999998,34.388888888888886,-5.166666666666664C33.888888888888886,-4.611111111111109,33.61111111111111,-3.9999999999999982,33.61111111111111,-3.277777777777775C33.61111111111111,-2.1666666666666643,34.22222222222222,-1.2222222222222205,35.44444444444444,-0.4999999999999982C35.44444444444444,-0.4999999999999982,37.61111111111111,0.5555555555555571,37.61111111111111,0.5555555555555571C38.77777777777777,1.1111111111111125,39.44444444444444,1.6666666666666683,39.72222222222222,2.222222222222224C39.888888888888886,2.5000000000000018,39.94444444444444,2.8333333333333353,39.94444444444444,3.111111111111113C39.94444444444444,4.000000000000002,39.5,4.6111111111111125,38.666666666666664,4.944444444444446C38.33333333333333,5.1111111111111125,37.94444444444444,5.166666666666668,37.5,5.166666666666668C35.94444444444444,5.166666666666668,34.94444444444444,4.388888888888891,34.44444444444444,2.8888888888888906C34.33333333333333,2.4444444444444464,34.27777777777777,2.0000000000000018,34.22222222222222,1.5000000000000018C34.22222222222222,1.5000000000000018,33.5,1.5000000000000018,33.5,1.5000000000000018C33.5,1.5000000000000018,33.5,5.6111111111111125,33.5,5.6111111111111125C33.83333333333333,5.6111111111111125,34.05555555555555,5.500000000000002,34.11111111111111,5.2777777777777795C34.11111111111111,5.2777777777777795,34.11111111111111,4.7777777777777795,34.11111111111111,4.7777777777777795C35.11111111111111,5.444444444444446,36.33333333333333,5.7777777777777795,37.72222222222222,5.7777777777777795C39.33333333333333,5.7777777777777795,40.55555555555555,5.333333333333335,41.388888888888886,4.500000000000002C42,3.8888888888888906,42.27777777777777,3.1666666666666683,42.27777777777777,2.3333333333333353C42.27777777777777,2.3333333333333353,42.27777777777777,2.3333333333333353,42.27777777777777,2.3333333333333353M46.94444444444445,8.777777777777779C46.94444444444445,8.777777777777779,46.94444444444445,4.833333333333335,46.94444444444445,4.833333333333335C47.5,5.444444444444446,48.22222222222223,5.7777777777777795,49.27777777777778,5.7777777777777795C50.5,5.7777777777777795,51.55555555555556,5.2777777777777795,52.333333333333336,4.333333333333335C53,3.5000000000000018,53.38888888888889,2.3888888888888906,53.38888888888889,1.1111111111111125C53.38888888888889,-0.4999999999999982,52.94444444444444,-1.611111111111109,52,-2.3888888888888866C51.44444444444444,-2.833333333333332,50.77777777777778,-3.0555555555555536,50.05555555555556,-3.0555555555555536C49,-3.0555555555555536,48.111111111111114,-2.7222222222222197,47.44444444444445,-1.8888888888888866C47.22222222222223,-1.5555555555555536,47,-1.2222222222222205,46.88888888888889,-0.8333333333333313C46.88888888888889,-0.8333333333333313,46.77777777777778,-2.777777777777775,46.77777777777778,-2.777777777777775C46.77777777777778,-2.777777777777775,43.55555555555556,-2.777777777777775,43.55555555555556,-2.777777777777775C43.55555555555556,-2.777777777777775,43.55555555555556,-2.3333333333333313,43.55555555555556,-2.3333333333333313C43.55555555555556,-2.3333333333333313,44.77777777777778,-2.3333333333333313,44.77777777777778,-2.3333333333333313C44.77777777777778,-2.3333333333333313,44.77777777777778,7.722222222222223,44.77777777777778,7.722222222222223C44.77777777777778,8.277777777777779,44.611111111111114,8.555555555555557,44.22222222222223,8.666666666666668C44.05555555555556,8.722222222222223,43.833333333333336,8.777777777777779,43.55555555555556,8.777777777777779C43.55555555555556,8.777777777777779,43.55555555555556,9.277777777777779,43.55555555555556,9.277777777777779C43.55555555555556,9.277777777777779,48.5,9.277777777777779,48.5,9.277777777777779C48.5,9.000000000000002,48.44444444444445,8.833333333333336,48.27777777777778,8.777777777777779C48.27777777777778,8.777777777777779,48.05555555555556,8.777777777777779,48.05555555555556,8.777777777777779C48.05555555555556,8.777777777777779,46.94444444444445,8.777777777777779,46.94444444444445,8.777777777777779C46.94444444444445,8.777777777777779,46.94444444444445,8.777777777777779,46.94444444444445,8.777777777777779M49.16666666666667,-2.1666666666666643C50.38888888888889,-2.1666666666666643,51,-0.9444444444444429,51,1.388888888888891C51,3.6111111111111125,50.5,4.833333333333335,49.44444444444445,5.166666666666668C49.27777777777778,5.222222222222224,49.111111111111114,5.222222222222224,48.94444444444445,5.222222222222224C48.16666666666667,5.222222222222224,47.611111111111114,4.7777777777777795,47.22222222222223,3.833333333333335C47,3.222222222222224,46.88888888888889,2.555555555555557,46.88888888888889,1.722222222222224C46.88888888888889,0.055555555555557135,47.27777777777778,-1.0555555555555536,48.05555555555556,-1.7222222222222205C48.38888888888889,-1.9999999999999982,48.77777777777778,-2.1666666666666643,49.16666666666667,-2.1666666666666643C49.16666666666667,-2.1666666666666643,49.16666666666667,-2.1666666666666643,49.16666666666667,-2.1666666666666643M58.66666666666668,5.055555555555557C58.66666666666668,5.055555555555557,57.8888888888889,5.055555555555557,57.8888888888889,5.055555555555557C57.8888888888889,5.055555555555557,57.8888888888889,-2.777777777777775,57.8888888888889,-2.777777777777775C57.8888888888889,-2.777777777777775,54.44444444444446,-2.777777777777775,54.44444444444446,-2.777777777777775C54.44444444444446,-2.777777777777775,54.44444444444446,-2.3333333333333313,54.44444444444446,-2.3333333333333313C54.44444444444446,-2.3333333333333313,55.722222222222236,-2.3333333333333313,55.722222222222236,-2.3333333333333313C55.722222222222236,-2.3333333333333313,55.722222222222236,4.000000000000002,55.722222222222236,4.000000000000002C55.722222222222236,4.555555555555557,55.55555555555557,4.88888888888889,55.11111111111112,5.000000000000002C54.94444444444446,5.055555555555557,54.722222222222236,5.055555555555557,54.44444444444446,5.055555555555557C54.44444444444446,5.055555555555557,54.44444444444446,5.555555555555557,54.44444444444446,5.555555555555557C54.44444444444446,5.555555555555557,59.16666666666668,5.555555555555557,59.16666666666668,5.555555555555557C59.16666666666668,5.2777777777777795,59.11111111111112,5.055555555555557,58.8888888888889,5.055555555555557C58.8888888888889,5.055555555555557,58.66666666666668,5.055555555555557,58.66666666666668,5.055555555555557C58.66666666666668,5.055555555555557,58.66666666666668,5.055555555555557,58.66666666666668,5.055555555555557M58.11111111111112,-5.444444444444443C58.11111111111112,-5.999999999999998,57.8888888888889,-6.3888888888888875,57.3888888888889,-6.666666666666664C57.16666666666668,-6.777777777777775,57.000000000000014,-6.83333333333333,56.77777777777779,-6.83333333333333C56.222222222222236,-6.83333333333333,55.83333333333334,-6.611111111111109,55.61111111111112,-6.111111111111109C55.500000000000014,-5.8888888888888875,55.44444444444446,-5.666666666666664,55.44444444444446,-5.444444444444443C55.44444444444446,-4.8888888888888875,55.66666666666668,-4.499999999999998,56.16666666666668,-4.277777777777775C56.3888888888889,-4.166666666666664,56.55555555555557,-4.166666666666664,56.77777777777779,-4.166666666666664C57.33333333333334,-4.166666666666664,57.722222222222236,-4.3888888888888875,57.94444444444446,-4.83333333333333C58.05555555555557,-5.055555555555554,58.11111111111112,-5.22222222222222,58.11111111111112,-5.444444444444443C58.11111111111112,-5.444444444444443,58.11111111111112,-5.444444444444443,58.11111111111112,-5.444444444444443M67,5.555555555555557C67,5.555555555555557,70.27777777777779,5.555555555555557,70.27777777777779,5.555555555555557C70.27777777777779,5.2777777777777795,70.22222222222223,5.1111111111111125,70.05555555555556,5.055555555555557C70.05555555555556,5.055555555555557,69.77777777777779,5.055555555555557,69.77777777777779,5.055555555555557C69.77777777777779,5.055555555555557,68.88888888888889,5.055555555555557,68.88888888888889,5.055555555555557C68.88888888888889,5.055555555555557,68.88888888888889,-7.166666666666664,68.88888888888889,-7.166666666666664C68.88888888888889,-7.166666666666664,64.88888888888889,-7.166666666666664,64.88888888888889,-7.166666666666664C64.88888888888889,-7.166666666666664,64.88888888888889,-6.611111111111109,64.88888888888889,-6.611111111111109C64.88888888888889,-6.611111111111109,66.72222222222223,-6.611111111111109,66.72222222222223,-6.611111111111109C66.72222222222223,-6.611111111111109,66.72222222222223,-2.1666666666666643,66.72222222222223,-2.1666666666666643C66.05555555555556,-2.777777777777775,65.22222222222223,-3.0555555555555536,64.27777777777779,-3.0555555555555536C63,-3.0555555555555536,61.94444444444445,-2.5555555555555536,61.16666666666667,-1.4999999999999982C60.55555555555556,-0.6666666666666643,60.27777777777778,0.3333333333333348,60.27777777777778,1.5555555555555571C60.27777777777778,3.1666666666666683,60.77777777777778,4.333333333333335,61.833333333333336,5.1111111111111125C62.44444444444445,5.555555555555557,63.05555555555556,5.7777777777777795,63.77777777777778,5.7777777777777795C65.05555555555556,5.7777777777777795,66,5.166666666666668,66.61111111111111,4.000000000000002C66.61111111111111,4.000000000000002,66.77777777777779,3.6666666666666683,66.77777777777779,3.6666666666666683C66.77777777777779,3.6666666666666683,67,5.555555555555557,67,5.555555555555557M62.611111111111114,1.3333333333333348C62.611111111111114,-0.5555555555555536,63.05555555555556,-1.777777777777776,63.88888888888889,-2.277777777777776C64.16666666666667,-2.444444444444443,64.5,-2.4999999999999982,64.77777777777779,-2.4999999999999982C65.66666666666667,-2.4999999999999982,66.27777777777779,-1.8888888888888866,66.55555555555556,-0.7222222222222205C66.66666666666667,-0.22222222222222054,66.72222222222223,0.3333333333333348,66.72222222222223,0.9444444444444464C66.72222222222223,2.7777777777777795,66.38888888888889,3.9444444444444464,65.55555555555556,4.555555555555557C65.27777777777779,4.7777777777777795,64.88888888888889,4.88888888888889,64.55555555555556,4.88888888888889C63.611111111111114,4.88888888888889,63,4.166666666666668,62.72222222222223,2.7777777777777795C62.66666666666667,2.3333333333333353,62.611111111111114,1.8888888888888906,62.611111111111114,1.3333333333333348C62.611111111111114,1.3333333333333348,62.611111111111114,1.3333333333333348,62.611111111111114,1.3333333333333348M75.55555555555556,-2.5555555555555536C76.38888888888889,-2.5555555555555536,76.83333333333334,-2.111111111111109,77,-1.1666666666666643C77.05555555555556,-0.9444444444444429,77.05555555555556,-0.7222222222222205,77.05555555555556,-0.4999999999999982C77.05555555555556,0.11111111111111338,76.83333333333334,0.5000000000000018,76.38888888888889,0.6666666666666687C76.11111111111111,0.7222222222222241,75.66666666666667,0.7777777777777795,75.11111111111111,0.7777777777777795C75.11111111111111,0.7777777777777795,73.61111111111111,0.6666666666666687,73.61111111111111,0.6666666666666687C73.66666666666667,-1.1666666666666643,74.16666666666667,-2.2222222222222205,75.11111111111111,-2.4999999999999982C75.27777777777779,-2.5555555555555536,75.38888888888889,-2.5555555555555536,75.55555555555556,-2.5555555555555536C75.55555555555556,-2.5555555555555536,75.55555555555556,-2.5555555555555536,75.55555555555556,-2.5555555555555536M79.11111111111111,3.555555555555557C79.11111111111111,3.555555555555557,78.61111111111111,3.444444444444446,78.61111111111111,3.444444444444446C78.22222222222223,4.2777777777777795,77.66666666666667,4.7777777777777795,76.83333333333334,5.055555555555557C76.55555555555556,5.166666666666668,76.27777777777779,5.166666666666668,76,5.166666666666668C74.5,5.166666666666668,73.66666666666667,3.8888888888888906,73.61111111111111,1.2777777777777795C73.61111111111111,1.2777777777777795,73.61111111111111,1.2777777777777795,73.61111111111111,1.2777777777777795C73.61111111111111,1.2777777777777795,75.61111111111111,1.2777777777777795,75.61111111111111,1.2777777777777795C77.55555555555556,1.3333333333333348,78.72222222222223,1.0555555555555571,79.11111111111111,0.4444444444444464C79.22222222222223,0.2222222222222241,79.27777777777779,1.7763568394002505e-15,79.27777777777779,-0.2777777777777759C79.27777777777779,-1.3333333333333313,78.77777777777779,-2.111111111111109,77.72222222222223,-2.611111111111109C77.05555555555556,-2.944444444444443,76.38888888888889,-3.0555555555555536,75.55555555555556,-3.0555555555555536C74.05555555555556,-3.0555555555555536,72.88888888888889,-2.4999999999999982,72.11111111111111,-1.4444444444444429C71.55555555555556,-0.6666666666666643,71.27777777777779,0.2222222222222241,71.27777777777779,1.3333333333333348C71.27777777777779,3.111111111111113,71.88888888888889,4.388888888888891,73.22222222222223,5.166666666666668C73.94444444444444,5.555555555555557,74.72222222222223,5.7777777777777795,75.61111111111111,5.7777777777777795C77.11111111111111,5.7777777777777795,78.16666666666667,5.222222222222224,78.83333333333334,4.166666666666668C78.94444444444444,3.9444444444444464,79.05555555555556,3.7777777777777795,79.11111111111111,3.555555555555557C79.11111111111111,3.555555555555557,79.11111111111111,3.555555555555557,79.11111111111111,3.555555555555557M85.05555555555556,5.055555555555557C85.05555555555556,5.055555555555557,83.66666666666667,5.055555555555557,83.66666666666667,5.055555555555557C83.66666666666667,5.055555555555557,83.66666666666667,0.8333333333333348,83.66666666666667,0.8333333333333348C83.77777777777779,-0.3888888888888866,84.11111111111111,-1.277777777777776,84.72222222222223,-1.7222222222222205C84.8888888888889,-1.8333333333333313,84.94444444444446,-1.8333333333333313,85.05555555555556,-1.8333333333333313C85.22222222222223,-1.8333333333333313,85.3888888888889,-1.6666666666666643,85.55555555555556,-1.3888888888888866C85.77777777777779,-0.9444444444444429,86.05555555555556,-0.7222222222222205,86.27777777777779,-0.6666666666666643C86.3888888888889,-0.6111111111111089,86.55555555555556,-0.6111111111111089,86.66666666666667,-0.6111111111111089C87.11111111111111,-0.6111111111111089,87.44444444444446,-0.8333333333333313,87.66666666666667,-1.277777777777776C87.72222222222223,-1.4444444444444429,87.72222222222223,-1.5555555555555536,87.72222222222223,-1.7222222222222205C87.72222222222223,-2.3333333333333313,87.44444444444446,-2.7222222222222197,86.83333333333334,-2.8888888888888875C86.66666666666667,-2.944444444444443,86.5,-2.944444444444443,86.33333333333334,-2.944444444444443C85.55555555555556,-2.944444444444443,84.83333333333334,-2.6666666666666643,84.22222222222223,-1.9999999999999982C83.94444444444446,-1.7222222222222205,83.77777777777779,-1.3333333333333313,83.61111111111111,-0.9444444444444429C83.61111111111111,-0.9444444444444429,83.44444444444446,-2.777777777777775,83.44444444444446,-2.777777777777775C83.44444444444446,-2.777777777777775,80.22222222222223,-2.777777777777775,80.22222222222223,-2.777777777777775C80.22222222222223,-2.777777777777775,80.22222222222223,-2.3333333333333313,80.22222222222223,-2.3333333333333313C80.22222222222223,-2.3333333333333313,81.50000000000001,-2.3333333333333313,81.50000000000001,-2.3333333333333313C81.50000000000001,-2.3333333333333313,81.50000000000001,4.000000000000002,81.50000000000001,4.000000000000002C81.50000000000001,4.555555555555557,81.27777777777779,4.88888888888889,80.8888888888889,5.000000000000002C80.72222222222223,5.055555555555557,80.50000000000001,5.055555555555557,80.22222222222223,5.055555555555557C80.22222222222223,5.055555555555557,80.22222222222223,5.555555555555557,80.22222222222223,5.555555555555557C80.22222222222223,5.555555555555557,85.55555555555556,5.555555555555557,85.55555555555556,5.555555555555557C85.55555555555556,5.2777777777777795,85.44444444444446,5.055555555555557,85.22222222222223,5.055555555555557C85.22222222222223,5.055555555555557,85.05555555555556,5.055555555555557,85.05555555555556,5.055555555555557C85.05555555555556,5.055555555555557,85.05555555555556,5.055555555555557,85.05555555555556,5.055555555555557M100.1111111111111,5.555555555555557C100.1111111111111,5.555555555555557,103.88888888888889,-5.611111111111109,103.88888888888889,-5.611111111111109C103.88888888888889,-5.611111111111109,104.88888888888889,-5.611111111111109,104.88888888888889,-5.611111111111109C104.88888888888889,-5.611111111111109,104.88888888888889,-6.166666666666664,104.88888888888889,-6.166666666666664C104.88888888888889,-6.166666666666664,101.66666666666666,-6.166666666666664,101.66666666666666,-6.166666666666664C101.66666666666666,-6.166666666666664,101.66666666666666,-5.611111111111109,101.66666666666666,-5.611111111111109C101.66666666666666,-5.611111111111109,103.22222222222221,-5.611111111111109,103.22222222222221,-5.611111111111109C103.22222222222221,-5.611111111111109,100.38888888888889,3.0000000000000018,100.38888888888889,3.0000000000000018C100.38888888888889,3.0000000000000018,97.33333333333333,-5.666666666666664,97.33333333333333,-5.666666666666664C97.33333333333333,-5.666666666666664,98.88888888888889,-5.611111111111109,98.88888888888889,-5.611111111111109C98.88888888888889,-5.611111111111109,98.88888888888889,-6.166666666666664,98.88888888888889,-6.166666666666664C98.88888888888889,-6.166666666666664,94.72222222222221,-6.166666666666664,94.72222222222221,-6.166666666666664C94.72222222222221,-6.166666666666664,96.16666666666666,-2.3333333333333313,96.16666666666666,-2.3333333333333313C96.16666666666666,-2.3333333333333313,94.22222222222221,3.111111111111113,94.22222222222221,3.111111111111113C94.22222222222221,3.111111111111113,91.05555555555556,-5.611111111111109,91.05555555555556,-5.611111111111109C91.05555555555556,-5.611111111111109,92.6111111111111,-5.611111111111109,92.6111111111111,-5.611111111111109C92.6111111111111,-5.611111111111109,92.6111111111111,-6.166666666666664,92.6111111111111,-6.166666666666664C92.6111111111111,-6.166666666666664,87.66666666666666,-6.166666666666664,87.66666666666666,-6.166666666666664C87.66666666666666,-6.166666666666664,87.66666666666666,-5.611111111111109,87.66666666666666,-5.611111111111109C87.66666666666666,-5.611111111111109,88.72222222222221,-5.611111111111109,88.72222222222221,-5.611111111111109C88.72222222222221,-5.611111111111109,92.38888888888889,4.166666666666668,92.38888888888889,4.166666666666668C92.66666666666666,4.944444444444446,92.94444444444444,5.38888888888889,93.16666666666666,5.500000000000002C93.27777777777777,5.555555555555557,93.44444444444444,5.6111111111111125,93.6111111111111,5.6111111111111125C93.6111111111111,5.6111111111111125,93.94444444444444,5.6111111111111125,93.94444444444444,5.6111111111111125C93.94444444444444,5.6111111111111125,96.5,-1.4444444444444429,96.5,-1.4444444444444429C96.5,-1.4444444444444429,98.6111111111111,4.166666666666668,98.6111111111111,4.166666666666668C98.88888888888889,4.944444444444446,99.1111111111111,5.333333333333335,99.33333333333333,5.444444444444446C99.44444444444444,5.500000000000002,99.6111111111111,5.555555555555557,99.83333333333333,5.555555555555557C99.83333333333333,5.555555555555557,100.1111111111111,5.555555555555557,100.1111111111111,5.555555555555557C100.1111111111111,5.555555555555557,100.1111111111111,5.555555555555557,100.1111111111111,5.555555555555557M109.77777777777777,-2.5555555555555536C110.6111111111111,-2.5555555555555536,111.05555555555554,-2.111111111111109,111.22222222222221,-1.1666666666666643C111.27777777777777,-0.9444444444444429,111.27777777777777,-0.7222222222222205,111.27777777777777,-0.4999999999999982C111.27777777777777,0.11111111111111338,111.05555555555554,0.5000000000000018,110.6111111111111,0.6666666666666687C110.33333333333333,0.7222222222222241,109.88888888888889,0.7777777777777795,109.33333333333333,0.7777777777777795C109.33333333333333,0.7777777777777795,107.83333333333333,0.6666666666666687,107.83333333333333,0.6666666666666687C107.88888888888889,-1.1666666666666643,108.38888888888889,-2.2222222222222205,109.33333333333333,-2.4999999999999982C109.5,-2.5555555555555536,109.6111111111111,-2.5555555555555536,109.77777777777777,-2.5555555555555536C109.77777777777777,-2.5555555555555536,109.77777777777777,-2.5555555555555536,109.77777777777777,-2.5555555555555536M113.33333333333333,3.555555555555557C113.33333333333333,3.555555555555557,112.83333333333333,3.444444444444446,112.83333333333333,3.444444444444446C112.44444444444444,4.2777777777777795,111.88888888888889,4.7777777777777795,111.05555555555554,5.055555555555557C110.77777777777777,5.166666666666668,110.5,5.166666666666668,110.22222222222221,5.166666666666668C108.72222222222221,5.166666666666668,107.88888888888889,3.8888888888888906,107.83333333333333,1.2777777777777795C107.83333333333333,1.2777777777777795,107.83333333333333,1.2777777777777795,107.83333333333333,1.2777777777777795C107.83333333333333,1.2777777777777795,109.83333333333333,1.2777777777777795,109.83333333333333,1.2777777777777795C111.77777777777777,1.3333333333333348,112.94444444444444,1.0555555555555571,113.33333333333333,0.4444444444444464C113.44444444444444,0.2222222222222241,113.5,1.7763568394002505e-15,113.5,-0.2777777777777759C113.5,-1.3333333333333313,113,-2.111111111111109,111.94444444444444,-2.611111111111109C111.27777777777777,-2.944444444444443,110.6111111111111,-3.0555555555555536,109.77777777777777,-3.0555555555555536C108.27777777777777,-3.0555555555555536,107.1111111111111,-2.4999999999999982,106.33333333333333,-1.4444444444444429C105.77777777777777,-0.6666666666666643,105.5,0.2222222222222241,105.5,1.3333333333333348C105.5,3.111111111111113,106.1111111111111,4.388888888888891,107.44444444444444,5.166666666666668C108.16666666666666,5.555555555555557,108.94444444444444,5.7777777777777795,109.83333333333333,5.7777777777777795C111.33333333333333,5.7777777777777795,112.38888888888889,5.222222222222224,113.05555555555554,4.166666666666668C113.16666666666666,3.9444444444444464,113.27777777777777,3.7777777777777795,113.33333333333333,3.555555555555557C113.33333333333333,3.555555555555557,113.33333333333333,3.555555555555557,113.33333333333333,3.555555555555557M120.16666666666666,5.7777777777777795C121.38888888888887,5.7777777777777795,122.38888888888887,5.333333333333335,123.16666666666666,4.388888888888891C123.88888888888887,3.555555555555557,124.2222222222222,2.4444444444444464,124.2222222222222,1.1666666666666687C124.2222222222222,-0.44444444444444287,123.7222222222222,-1.611111111111109,122.77777777777776,-2.3888888888888866C122.2222222222222,-2.833333333333332,121.55555555555554,-3.0555555555555536,120.83333333333331,-3.0555555555555536C119.44444444444443,-3.0555555555555536,118.38888888888887,-2.444444444444443,117.77777777777776,-1.111111111111109C117.77777777777776,-1.111111111111109,117.77777777777776,-0.9999999999999982,117.77777777777776,-0.9999999999999982C117.77777777777776,-0.9999999999999982,117.77777777777776,-7.166666666666664,117.77777777777776,-7.166666666666664C117.77777777777776,-7.166666666666664,114.38888888888887,-7.166666666666664,114.38888888888887,-7.166666666666664C114.38888888888887,-7.166666666666664,114.38888888888887,-6.611111111111109,114.38888888888887,-6.611111111111109C114.38888888888887,-6.611111111111109,115.55555555555554,-6.611111111111109,115.55555555555554,-6.611111111111109C115.55555555555554,-6.611111111111109,115.55555555555554,4.000000000000002,115.55555555555554,4.000000000000002C115.55555555555554,4.555555555555557,115.38888888888887,4.88888888888889,114.99999999999999,5.000000000000002C114.83333333333331,5.055555555555557,114.6111111111111,5.055555555555557,114.38888888888887,5.055555555555557C114.38888888888887,5.055555555555557,114.38888888888887,5.555555555555557,114.38888888888887,5.555555555555557C114.38888888888887,5.555555555555557,117.16666666666666,5.555555555555557,117.16666666666666,5.555555555555557C117.16666666666666,5.555555555555557,117.33333333333331,4.222222222222224,117.33333333333331,4.222222222222224C117.94444444444443,5.222222222222224,118.94444444444443,5.7777777777777795,120.16666666666666,5.7777777777777795C120.16666666666666,5.7777777777777795,120.16666666666666,5.7777777777777795,120.16666666666666,5.7777777777777795M119.99999999999999,-2.1666666666666643C121.16666666666666,-2.1666666666666643,121.77777777777776,-1.1666666666666643,121.83333333333331,0.9444444444444464C121.83333333333331,0.9444444444444464,121.83333333333331,1.388888888888891,121.83333333333331,1.388888888888891C121.83333333333331,3.555555555555557,121.33333333333331,4.833333333333335,120.33333333333331,5.166666666666668C120.16666666666666,5.222222222222224,119.94444444444443,5.222222222222224,119.77777777777776,5.222222222222224C118.88888888888887,5.222222222222224,118.27777777777776,4.666666666666668,117.94444444444443,3.555555555555557C117.77777777777776,3.055555555555557,117.72222222222221,2.4444444444444464,117.72222222222221,1.722222222222224C117.72222222222221,0.055555555555557135,118.1111111111111,-1.0555555555555536,118.88888888888887,-1.7222222222222205C119.22222222222221,-1.9999999999999982,119.6111111111111,-2.1666666666666643,119.99999999999999,-2.1666666666666643C119.99999999999999,-2.1666666666666643,119.99999999999999,-2.1666666666666643,119.99999999999999,-2.1666666666666643"/> </g> </g> </g> </g> </svg>