<svg xmlns="http://www.w3.org/2000/svg" viewBox="0 0 126 49" width="126" height="49"> <g>  <rect x="0" y="0" width="100%" height="100%" fill="#ffffff" fill-opacity="1"/> </g> <g transform="matrix(0.38420318781405394 0 0 0.38420318781405394 7.333451819699569 -3.43887449312561)"> <g transform="matrix(1.15411931775 0 0 1.15411931775 -22.330086524939503 -11.207403822134268)"> <g> <g is="lm-picture">  <g transform="matrix(0.1274757333576776 0.5090631152300091 -0.5090632330958047 0.12747583514851832 65.20476638122128 45.08546859552211)"> <g transform="matrix(1 0 0 1 0 0)"> <defs> <linearGradient x1="0" y1="0" x2="0" y2="1" id="gradient121" gradientTransform="rotate(-180 .5 .5)"> <stop offset="0" stop-color="#00FBFF" stop-opacity="1"/><stop offset="1" stop-color="#0A1393" stop-opacity="1"/> </linearGradient>  </defs> <path fill="url(#gradient121)" d="M70.8 20.15Q58.7 7.95 41.5 7.95 24.3 7.95 12.15 20.15 0 32.3 0 49.45 0 66.65 12.15 78.8 24.3 90.95 41.5 90.95 58.7 90.95 70.8 78.8 82.95 66.65 82.95 49.45 82.95 32.3 70.8 20.15Z"/> </g><g transform="matrix(1 0 0 1 0 0)"> <defs> <linearGradient x1="0" y1="0" x2="0" y2="1" id="gradient122" gradientTransform="rotate(-180 .5 .5)"> <stop offset="0" stop-color="#A5FCFC" stop-opacity="1"/><stop offset="1" stop-color="#FFFFFF" stop-opacity="1"/> </linearGradient>  </defs> <path fill="url(#gradient122)" d="M70.2 20.75Q58.3 8.8 41.5 8.8 24.7 8.8 12.8 20.75 0.85 32.65 0.85 49.45 0.85 66.3 12.8 78.2 24.7 90.15 41.5 90.15 58.3 90.15 70.2 78.2 82.1 66.3 82.1 49.45 82.1 32.65 70.2 20.75M47.9 21.95Q47.35 22.9 48.25 24.85 48.7 25.85 49.25 26.6L49.25 30.6Q47.45 30.5 46.6 30.6 46.1 30.65 46.25 31.9 46.4 32.55 46.6 33.25L49.5 36Q48.45 36.65 47.3 37.65 43.7 40.7 43.55 44.4 43.4 48.75 44.25 50.85 45.25 53.3 47.85 53.7 49.4 53.95 53.15 52.5 56.25 51.25 57.7 52.45 59.5 53.85 59.2 58.8 58.95 62.7 57.7 66.55 56.75 69.5 57.55 71.95 58.4 74.45 60.4 74.45 62.6 74.45 65.85 68.6 69.3 62.55 68.85 58.5 68.6 55.5 70.45 52.95 72.4 50.15 72.4 47.8 69.2 46.6 66.5 39.3 68.15 40.9 70.2 41.65 72.4 42.4 73.15 41.4 73.75 40.5 72.1 38.05L70.3 35.8 74 37.7Q78.05 40.35 80.05 44 80.45 46.7 80.45 49.45 80.45 65.6 69 77 57.6 88.45 41.5 88.45 25.4 88.45 13.95 77 2.55 65.6 2.55 49.45 2.55 40.3 6.65 32.15 10.55 24.3 17.5 18.8 19.95 19.45 19.95 20.25 19.95 20.4 15.05 24.5 10.25 28.65 10.05 30.95 9.9 32.95 8.65 36.05 7.5 39 7.5 40.7 7.5 42.75 14.5 52.35 13.25 55.8 13.9 59.35 14.7 63.8 18.55 67.15 20.7 69.1 21.45 71.95 22.55 76.25 25.5 79.4 27.5 81.55 29.95 82.8 30.1 82.9 30.25 82.75 30.35 82.6 30.2 82.45 26.8 78.4 30.55 70.35 30.7 70.1 33.5 64.75 34.9 62.05 34.75 61.2 34.3 59.45 30.8 58.5 26.45 57.25 26 56.95 25.9 56.9 21.65 51.7 18.3 47.7 16.95 48.45 16.05 49 15.25 50.65 10.55 42.3 10.6 40.8 10.7 38.8 11.95 37.05 13.15 35.3 14.4 35.55 15.25 35.75 15.35 37.7 15.4 39.65 16.25 39.7 17.25 39.8 17.3 38.55 17.45 36.6 17.65 36.2 18.7 34.1 22.25 31.65 27.1 28.25 32.45 28.75 33.3 28.85 33.3 26.25 33.3 23.65 32.45 22.75 31.9 22.25 28.45 24 24.9 25.75 24.25 25.2 23.5 24.6 27.35 21.85 31.35 18.9 31.2 18.15 31 17.45 29.25 17.75 27.1 18.15 26 17.15 24.55 15.85 19.3 17.5 29.4 10.5 41.5 10.5 50.65 10.5 58.7 14.55 57 16.25 53.7 17.5 51.05 18.5 50.9 19.55 50.7 20.75 53.1 20.35 55.5 20.05 55.2 21 54.3 24.15 51.95 24.9 51.1 25.2 49.6 23.05 48.35 21.2 47.9 21.95M58.4 37.2Q57.25 37.25 55.7 36.1 54.05 34.95 52.8 34.95 51.35 34.95 49.6 35.95L51.85 32.8Q54.5 29.5 56.45 29.3 59.1 29 63.5 35.75 60.15 37.1 58.4 37.2ZM42 19.5Q45.2 18.05 45.2 16.6 45.2 15.2 39.65 14.95 34.1 14.75 34.15 15.6 34.2 16.1 36.95 17 39 18.3 36 21 38.9 21 42 19.5ZM73.5 61.35Q73.1 61.1 72 62.4 70.9 63.75 69.85 65.8 68.85 67.9 68.35 69.55 67.95 71.15 68.35 71.4 68.85 71.65 69.85 70.3 70.95 69.05 72.05 66.9 73.15 64.85 73.55 63.2 74 61.55 73.5 61.35Z"/> </g><g transform="matrix(1 0 0 1 0 0)"> <defs> <linearGradient x1="0" y1="0" x2="0" y2="1" id="gradient123" gradientTransform="rotate(-180 .5 .5)"> <stop offset="0" stop-color="#FFFFFF" stop-opacity="0.2"/><stop offset="1" stop-color="#FFFFFF" stop-opacity="1"/> </linearGradient>  </defs> <path fill="url(#gradient123)" d="M62.35 18.8Q53.7 12.1 41.5 12.1 29.35 12.1 20.7 18.8 12.1 25.5 12.1 35.05 12.1 44.6 20.7 51.35 29.35 58.05 41.5 58.05 53.7 58.05 62.35 51.35 70.95 44.6 70.95 35.05 70.95 25.5 62.35 18.8Z"/> </g><g transform="matrix(1 0 0 1 0 0)"> <defs> <linearGradient x1="0" y1="0" x2="0" y2="1" id="gradient124" gradientTransform="rotate(-300 .5 .5)"> <stop offset="0" stop-color="#005ABB" stop-opacity="1"/><stop offset="1" stop-color="#005ABB" stop-opacity="1"/> </linearGradient>  </defs> <path fill="url(#gradient124)" d="M69.4 19Q71.4 16.3 70.8 12.7 70.15 8.4 65.85 4.25 61.45 0 56.25 1.55 53.6 2.3 44.35 7.9 36.55 12.7 30.4 17.85 23.8 23.5 24.75 25.05 25.45 26.25 32.6 20.8 39.8 15.35 40.1 15.8 40.4 16.25 30.5 23.35 20.75 30.45 22 31.95 23.3 33.45 32.75 26.35 42.2 19.25 42.55 19.65 42.9 20.05 32.1 28.6 21.3 37.15 22.6 38.45 23.9 39.65 34.45 31.85 45 24.1 45.6 24.7 46.2 25.4 36.55 32.35 26.9 39.4 27.8 40.65 28.8 42.05 43.4 32.3 58.25 22.3 58.6 22.45 59.2 22.7 54.5 27.15 50.2 32.3 53.2 35.4 53.45 35.7 53.9 35.6 54.25 35.5 54.35 35.1 55.2 32.15 61.65 26.25 69.1 19.35 69.4 19Z"/> </g><g transform="matrix(1 0 0 1 0 0)"> <defs> <linearGradient x1="0" y1="0" x2="0" y2="1" id="gradient125" gradientTransform="rotate(-90 .5 .5)"> <stop offset="0" stop-color="#005ABB" stop-opacity="1"/><stop offset="1" stop-color="#005ABB" stop-opacity="1"/> </linearGradient>  </defs> <path fill="url(#gradient125)" d="M16.25 83.75Q5.1 79.5 1.75 64.95 3.9 80.95 11.65 90.4 18.5 98.8 28.4 100.65 37.45 102.4 45.85 98.15 54.3 93.85 58.1 85.45 57.35 85.05 55.9 85.9 54.95 86.55 52.95 88.35 54.1 85.9 54.5 85.75 52.6 85.05 50.3 87.6 48.8 89.15 45.1 93.8 39.95 95.9 35.45 92.5 34.45 91.75 35.55 91.85 36.25 91.9 38.95 92.25 45.15 92.8 46.1 89.2 46.2 88.7 45.9 88.4 45.55 88.05 45.15 88.15 42.8 88.85 37.85 86.1 33 83.4 31.55 84 24.35 86.8 16.25 83.75Z"/> </g> </g> </g><g is="lm-text" transform="matrix(1.9348620120000002 0 0 1.9348620120000002 68.82363960174588 71.66823847462574)"> <defs> <filter x="-50%" y="-50%" width="200%" height="200%" id="filter126"> <feGaussianBlur in="SourceAlpha" stdDeviation="1"/> <feOffset dx="6.123233995736766e-17" dy="1"/> <feComponentTransfer result="drop"> <feFuncA type="linear" slope="0.5"/> </feComponentTransfer> <feFlood in="SourceGraphic" flood-color="#000000"/> <feComposite operator="xor" in2="SourceGraphic"/> <feGaussianBlur stdDeviation="2"/> <feOffset dx="0" dy="0"/> <feComponentTransfer> <feFuncA type="linear" slope="1"/> </feComponentTransfer> <feComposite operator="in" in2="SourceGraphic"/> <feComposite operator="over" in2="SourceGraphic" result="inner"/> <feMerge> <feMergeNode in="drop"/> <feMergeNode in="SourceGraphic"/> <feMergeNode in="inner"/> </feMerge> </filter> </defs>  <path filter="url(#filter126)" fill="#224790" fill-opacity="1" d="M3.000000000000003,5.33333333333333C2.6111111111111143,4.888888888888886,2.4444444444444478,4.388888888888886,2.4444444444444478,3.8888888888888857C2.4444444444444478,3.3888888888888857,2.555555555555559,2.8888888888888857,2.7222222222222254,2.499999999999997C2.888888888888892,2.111111111111108,3.1666666666666696,1.8333333333333304,3.4444444444444473,1.5555555555555527C3.7222222222222254,1.277777777777775,4.055555555555559,1.0555555555555527,4.444444444444447,0.8888888888888857C5.16666666666667,0.5555555555555527,6.0000000000000036,0.3333333333333304,6.888888888888892,0.3333333333333304C6.944444444444447,-0.722222222222225,7.222222222222225,-1.722222222222225,7.66666666666667,-2.722222222222225C8.111111111111114,-3.722222222222225,8.611111111111114,-4.555555555555559,9.333333333333336,-5.27777777777778C10.055555555555557,-6.000000000000002,10.944444444444446,-6.611111111111114,11.944444444444446,-7.055555555555557C12.944444444444446,-7.500000000000002,14.000000000000002,-7.66666666666667,15.16666666666667,-7.66666666666667C16.222222222222225,-7.66666666666667,17.222222222222225,-7.388888888888891,18.111111111111114,-6.888888888888891C18.555555555555557,-6.611111111111114,18.944444444444446,-6.27777777777778,19.222222222222225,-5.833333333333336C19.500000000000004,-5.388888888888891,19.611111111111114,-4.833333333333336,19.611111111111114,-4.16666666666667C19.611111111111114,-3.5000000000000018,19.444444444444446,-2.8333333333333357,19.111111111111114,-2.1666666666666696C18.77777777777778,-1.5000000000000027,18.388888888888893,-0.888888888888892,17.833333333333336,-0.38888888888889195C16.66666666666667,0.611111111111108,15.388888888888891,1.2222222222222197,13.944444444444446,1.3888888888888857C13.388888888888891,3.0555555555555527,12.388888888888891,4.33333333333333,11.055555555555559,5.277777777777775C9.722222222222225,6.222222222222219,8.111111111111114,6.666666666666663,6.27777777777778,6.666666666666663C4.833333333333337,6.666666666666663,3.7222222222222254,6.222222222222219,3.000000000000003,5.33333333333333C3.000000000000003,5.33333333333333,3.000000000000003,5.33333333333333,3.000000000000003,5.33333333333333M3.500000000000003,2.777777777777775C3.2222222222222254,3.111111111111108,3.1111111111111143,3.499999999999997,3.1111111111111143,3.8888888888888857C3.1111111111111143,4.277777777777775,3.2222222222222254,4.611111111111108,3.4444444444444473,4.888888888888886C3.6666666666666696,5.166666666666663,3.9444444444444473,5.444444444444441,4.27777777777778,5.611111111111108C4.944444444444447,5.944444444444441,5.66666666666667,6.111111111111108,6.388888888888892,6.111111111111108C7.555555555555558,6.111111111111108,8.611111111111114,5.666666666666663,9.611111111111114,4.944444444444441C10.611111111111114,4.22222222222222,11.333333333333336,3.277777777777775,11.833333333333336,2.111111111111108C12.055555555555559,1.6666666666666634,12.222222222222225,0.944444444444442,12.444444444444446,-2.6645352591003757e-15C12.66666666666667,-0.9444444444444473,12.888888888888891,-1.6111111111111143,13.000000000000002,-1.9444444444444464C13.722222222222225,-4.16666666666667,14.722222222222225,-5.66666666666667,16.055555555555557,-6.500000000000002C15.944444444444446,-6.611111111111114,15.77777777777778,-6.66666666666667,15.444444444444446,-6.722222222222225C15.111111111111114,-6.77777777777778,14.722222222222225,-6.833333333333336,14.333333333333336,-6.833333333333336C13.500000000000002,-6.833333333333336,12.66666666666667,-6.611111111111114,11.833333333333336,-6.16666666666667C11.000000000000004,-5.722222222222225,10.222222222222225,-5.222222222222225,9.611111111111114,-4.555555555555559C9.000000000000004,-3.888888888888891,8.500000000000004,-3.1666666666666696,8.111111111111114,-2.2777777777777803C7.722222222222225,-1.388888888888892,7.555555555555558,-0.5000000000000027,7.555555555555558,0.38888888888888573C8.500000000000004,0.5555555555555527,9.388888888888893,0.8888888888888857,10.333333333333336,1.4999999999999973C10.333333333333336,1.4999999999999973,9.944444444444446,2.1666666666666634,9.944444444444446,2.1666666666666634C9.055555555555557,1.6666666666666634,8.27777777777778,1.3888888888888857,7.611111111111114,1.3888888888888857C7.611111111111114,1.5555555555555527,7.66666666666667,1.8333333333333304,7.77777777777778,2.277777777777775C7.888888888888892,2.722222222222219,8.000000000000004,3.111111111111108,8.111111111111114,3.499999999999997C8.111111111111114,3.499999999999997,7.555555555555558,3.666666666666664,7.555555555555558,3.666666666666664C7.388888888888892,3.4444444444444415,7.27777777777778,3.0555555555555527,7.16666666666667,2.5555555555555527C7.055555555555559,2.0555555555555527,7.000000000000003,1.6666666666666634,6.944444444444447,1.3888888888888857C6.111111111111114,1.3888888888888857,5.333333333333336,1.611111111111108,4.5000000000000036,1.9999999999999973C4.111111111111114,2.1666666666666634,3.777777777777781,2.4444444444444415,3.500000000000003,2.777777777777775C3.500000000000003,2.777777777777775,3.500000000000003,2.777777777777775,3.500000000000003,2.777777777777775M16.77777777777778,-6.111111111111114C16.055555555555557,-5.388888888888891,15.500000000000002,-4.444444444444446,15.055555555555557,-3.222222222222225C14.611111111111114,-2.0000000000000036,14.222222222222225,-0.6111111111111143,14.055555555555559,0.8333333333333304C14.555555555555559,0.8333333333333304,15.055555555555557,0.6666666666666634,15.555555555555557,0.38888888888888573C16.055555555555557,0.11111111111110805,16.5,-0.27777777777778034,16.833333333333336,-0.722222222222225C17.16666666666667,-1.1666666666666696,17.5,-1.6666666666666696,17.722222222222225,-2.222222222222225C17.944444444444446,-2.7777777777777803,18.055555555555557,-3.222222222222225,18.055555555555557,-3.555555555555559C18.055555555555557,-3.888888888888891,18.055555555555557,-4.16666666666667,18,-4.388888888888891C17.944444444444446,-4.611111111111114,17.888888888888893,-4.77777777777778,17.833333333333336,-5.000000000000002C17.66666666666667,-5.555555555555559,17.27777777777778,-5.888888888888891,16.77777777777778,-6.111111111111114C16.77777777777778,-6.111111111111114,16.77777777777778,-6.111111111111114,16.77777777777778,-6.111111111111114M19.944444444444446,-4.16666666666667C20.388888888888893,-5.16666666666667,21.000000000000004,-5.944444444444446,21.77777777777778,-6.555555555555557C22.555555555555557,-7.16666666666667,23.388888888888893,-7.500000000000002,24.27777777777778,-7.500000000000002C24.77777777777778,-7.500000000000002,25.222222222222225,-7.388888888888891,25.611111111111114,-7.111111111111114C26,-6.833333333333336,26.16666666666667,-6.388888888888891,26.16666666666667,-5.888888888888891C26.16666666666667,-5.555555555555559,26.055555555555557,-5.388888888888891,25.833333333333336,-5.222222222222225C25.611111111111114,-5.055555555555559,25.388888888888893,-4.944444444444446,25.111111111111114,-4.944444444444446C24.833333333333336,-4.944444444444446,24.555555555555557,-5.000000000000002,24.388888888888893,-5.16666666666667C24.222222222222225,-5.333333333333336,24.111111111111114,-5.555555555555559,24.111111111111114,-5.77777777777778C24.111111111111114,-6.000000000000002,24.222222222222225,-6.27777777777778,24.388888888888893,-6.555555555555557C24.166666666666668,-6.66666666666667,23.944444444444446,-6.722222222222225,23.722222222222225,-6.722222222222225C23.500000000000004,-6.722222222222225,23.333333333333336,-6.611111111111114,23.055555555555557,-6.444444444444446C22.77777777777778,-6.27777777777778,22.500000000000004,-6.055555555555557,22.27777777777778,-5.77777777777778C21.888888888888893,-5.27777777777778,21.555555555555557,-4.66666666666667,21.222222222222225,-3.9444444444444464C20.888888888888893,-3.222222222222225,20.388888888888893,-1.5000000000000027,19.666666666666668,1.2222222222222197C18.944444444444446,3.9444444444444415,18.611111111111114,5.666666666666663,18.611111111111114,6.388888888888886C18.611111111111114,6.388888888888886,17.055555555555557,6.388888888888886,17.055555555555557,6.388888888888886C17.055555555555557,5.277777777777775,17.388888888888893,3.611111111111108,18.000000000000004,1.3333333333333304C18.611111111111114,-0.9444444444444473,19.27777777777778,-2.722222222222225,19.944444444444446,-4.16666666666667C19.944444444444446,-4.16666666666667,19.944444444444446,-4.16666666666667,19.944444444444446,-4.16666666666667M23.722222222222225,5.9999999999999964C23.27777777777778,6.388888888888886,22.888888888888893,6.555555555555553,22.444444444444446,6.555555555555553C22.000000000000004,6.555555555555553,21.66666666666667,6.388888888888886,21.444444444444446,5.9999999999999964C21.444444444444446,5.9999999999999964,20.833333333333336,4.9999999999999964,20.833333333333336,4.9999999999999964C20.833333333333336,4.9999999999999964,20.611111111111114,4.555555555555553,20.444444444444446,4.277777777777775C20.27777777777778,3.999999999999997,20.222222222222225,3.999999999999997,20.111111111111114,3.7777777777777746C20.000000000000004,3.611111111111108,20.000000000000004,3.499999999999997,19.944444444444446,3.4444444444444415C19.888888888888893,3.3888888888888857,19.833333333333336,3.277777777777775,19.77777777777778,3.222222222222219C19.722222222222225,3.166666666666664,19.722222222222225,3.0555555555555527,19.722222222222225,2.999999999999997C19.722222222222225,2.999999999999997,20.000000000000004,2.722222222222219,20.000000000000004,2.722222222222219C21.833333333333336,0.777777777777775,23.27777777777778,-0.27777777777778034,24.333333333333336,-0.27777777777778034C24.722222222222225,-0.27777777777778034,25.055555555555557,-0.16666666666666963,25.27777777777778,0.055555555555552694C25.5,0.277777777777775,25.611111111111114,0.49999999999999734,25.611111111111114,0.7222222222222197C25.611111111111114,0.944444444444442,25.555555555555557,1.1666666666666634,25.388888888888893,1.3333333333333304C25.222222222222225,1.4999999999999973,25.000000000000004,1.611111111111108,24.722222222222225,1.611111111111108C24.444444444444446,1.611111111111108,24.27777777777778,1.5555555555555527,24.111111111111114,1.444444444444442C23.944444444444446,1.3333333333333304,23.833333333333336,1.111111111111108,23.833333333333336,0.9999999999999973C23.833333333333336,0.9999999999999973,23.833333333333336,0.8333333333333304,23.833333333333336,0.8333333333333304C22.833333333333336,1.3888888888888857,21.944444444444446,1.944444444444441,21.166666666666668,2.611111111111108C21.166666666666668,2.611111111111108,20.888888888888893,2.8888888888888857,20.888888888888893,2.8888888888888857C21.055555555555557,2.999999999999997,21.722222222222225,3.8333333333333304,22.833333333333336,5.22222222222222C22.944444444444446,5.388888888888886,23.055555555555557,5.444444444444441,23.166666666666668,5.444444444444441C23.27777777777778,5.444444444444441,23.444444444444446,5.33333333333333,23.611111111111114,5.166666666666663C23.77777777777778,4.9999999999999964,24.111111111111114,4.72222222222222,24.444444444444446,4.33333333333333C24.444444444444446,4.33333333333333,24.833333333333336,4.666666666666663,24.833333333333336,4.666666666666663C24.555555555555557,5.166666666666663,24.166666666666668,5.611111111111108,23.722222222222225,5.9999999999999964C23.722222222222225,5.9999999999999964,23.722222222222225,5.9999999999999964,23.722222222222225,5.9999999999999964M32.5,6.555555555555553C31.833333333333332,6.666666666666663,31.166666666666664,6.722222222222219,30.611111111111107,6.722222222222219C30.055555555555554,6.722222222222219,29.499999999999996,6.666666666666663,29.055555555555554,6.611111111111108C28.611111111111107,6.555555555555553,28.111111111111107,6.444444444444441,27.666666666666664,6.277777777777775C27.22222222222222,6.111111111111108,26.833333333333332,5.944444444444441,26.499999999999996,5.722222222222219C25.777777777777775,5.22222222222222,25.333333333333332,4.388888888888886,25.333333333333332,3.4444444444444415C25.333333333333332,2.8888888888888857,25.499999999999996,2.3888888888888857,25.777777777777775,1.8888888888888857C26.055555555555554,1.3888888888888857,26.333333333333332,0.944444444444442,26.777777777777775,0.611111111111108C27.666666666666664,-0.11111111111111427,28.72222222222222,-0.4444444444444473,29.777777777777775,-0.4444444444444473C31.055555555555554,-0.4444444444444473,32.05555555555556,-0.05555555555555802,32.666666666666664,0.7222222222222197C33,1.111111111111108,33.166666666666664,1.5555555555555527,33.166666666666664,2.111111111111108C33.166666666666664,2.666666666666664,32.888888888888886,3.166666666666664,32.388888888888886,3.5555555555555527C31.888888888888886,3.9444444444444415,31.277777777777775,4.111111111111108,30.72222222222222,4.111111111111108C30.611111111111107,4.111111111111108,30.555555555555554,4.111111111111108,30.555555555555554,3.9444444444444415C30.555555555555554,3.7777777777777746,30.611111111111107,3.666666666666664,30.72222222222222,3.611111111111108C30.833333333333332,3.5555555555555527,31.055555555555554,3.499999999999997,31.22222222222222,3.4444444444444415C31.388888888888886,3.3888888888888857,31.555555555555554,3.277777777777775,31.72222222222222,3.222222222222219C32.166666666666664,2.999999999999997,32.44444444444444,2.722222222222219,32.44444444444444,2.277777777777775C32.44444444444444,1.8333333333333304,32.166666666666664,1.444444444444442,31.777777777777775,1.2222222222222197C31.388888888888886,0.9999999999999973,30.666666666666664,0.8888888888888857,29.666666666666664,0.8888888888888857C28.666666666666664,0.8888888888888857,27.833333333333332,1.1666666666666634,27.277777777777775,1.6666666666666634C26.72222222222222,2.1666666666666634,26.444444444444443,2.777777777777775,26.444444444444443,3.499999999999997C26.444444444444443,4.444444444444441,26.833333333333332,5.166666666666663,27.666666666666664,5.555555555555553C28.388888888888886,5.888888888888886,29.333333333333332,6.055555555555553,30.388888888888886,6.055555555555553C32.166666666666664,6.055555555555553,33.61111111111111,5.555555555555553,34.72222222222222,4.555555555555553C35.5,3.8333333333333304,35.888888888888886,2.9444444444444415,35.888888888888886,1.8333333333333304C35.888888888888886,1.1666666666666634,35.666666666666664,0.5555555555555527,35.22222222222222,-0.05555555555555802C35.22222222222222,-0.05555555555555802,34.55555555555556,-0.888888888888892,34.55555555555556,-0.888888888888892C34.55555555555556,-0.888888888888892,33.77777777777777,-1.6666666666666696,33.77777777777777,-1.6666666666666696C33.77777777777777,-1.6666666666666696,33.11111111111111,-2.5000000000000036,33.11111111111111,-2.5000000000000036C32.666666666666664,-3.1111111111111143,32.44444444444444,-3.6111111111111143,32.44444444444444,-4.111111111111114C32.44444444444444,-4.611111111111114,32.5,-5.055555555555559,32.666666666666664,-5.444444444444446C32.83333333333333,-5.833333333333336,33.05555555555556,-6.111111111111114,33.33333333333333,-6.388888888888891C33.61111111111111,-6.66666666666667,33.94444444444444,-6.888888888888891,34.27777777777777,-7.111111111111114C35,-7.500000000000002,35.72222222222222,-7.66666666666667,36.55555555555556,-7.66666666666667C37.27777777777777,-7.66666666666667,37.94444444444444,-7.500000000000002,38.55555555555556,-7.16666666666667C39.22222222222222,-6.77777777777778,39.55555555555556,-6.222222222222225,39.55555555555556,-5.500000000000002C39.55555555555556,-5.222222222222225,39.44444444444444,-4.944444444444446,39.22222222222222,-4.722222222222225C39,-4.500000000000002,38.77777777777777,-4.388888888888891,38.5,-4.388888888888891C38.22222222222222,-4.388888888888891,38.05555555555556,-4.444444444444446,37.888888888888886,-4.611111111111114C37.72222222222222,-4.77777777777778,37.61111111111111,-5.000000000000002,37.61111111111111,-5.16666666666667C37.61111111111111,-5.333333333333336,37.72222222222222,-5.500000000000002,37.888888888888886,-5.722222222222225C38.05555555555556,-5.944444444444446,38.11111111111111,-6.111111111111114,38.11111111111111,-6.27777777777778C38.11111111111111,-6.444444444444446,38.05555555555556,-6.555555555555557,37.94444444444444,-6.66666666666667C37.83333333333333,-6.77777777777778,37.666666666666664,-6.833333333333336,37.5,-6.888888888888891C37.11111111111111,-7.000000000000002,36.77777777777777,-7.055555555555557,36.5,-7.055555555555557C35.83333333333333,-7.055555555555557,35.22222222222222,-6.833333333333336,34.72222222222222,-6.444444444444446C34.22222222222222,-6.055555555555557,34,-5.500000000000002,34,-4.77777777777778C34,-4.388888888888891,34.22222222222222,-3.888888888888891,34.72222222222222,-3.3333333333333357C34.72222222222222,-3.3333333333333357,35.44444444444444,-2.6111111111111143,35.44444444444444,-2.6111111111111143C35.72222222222222,-2.3333333333333357,35.94444444444444,-2.055555555555559,36.22222222222222,-1.7777777777777803C36.5,-1.5000000000000027,36.72222222222222,-1.1666666666666696,36.94444444444444,-0.8333333333333357C37.44444444444444,-0.11111111111111427,37.72222222222222,0.5555555555555527,37.72222222222222,1.3333333333333304C37.72222222222222,2.111111111111108,37.55555555555556,2.777777777777775,37.27777777777777,3.3888888888888857C37,3.999999999999997,36.61111111111111,4.555555555555553,36.11111111111111,4.944444444444441C35.61111111111111,5.33333333333333,35,5.666666666666663,34.388888888888886,5.944444444444441C33.77777777777777,6.222222222222219,33.166666666666664,6.444444444444441,32.5,6.555555555555553C32.5,6.555555555555553,32.5,6.555555555555553,32.5,6.555555555555553M44,5.944444444444441C43.44444444444444,6.33333333333333,42.833333333333336,6.555555555555553,42.111111111111114,6.555555555555553C41.388888888888886,6.555555555555553,40.888888888888886,6.277777777777775,40.44444444444444,5.722222222222219C40.111111111111114,6.944444444444441,39.888888888888886,7.83333333333333,39.666666666666664,8.33333333333333C39,9.944444444444441,38.05555555555556,10.722222222222218,36.888888888888886,10.722222222222218C36.611111111111114,10.722222222222218,36.388888888888886,10.666666666666664,36.166666666666664,10.444444444444441C35.94444444444444,10.222222222222218,35.888888888888886,10.055555555555552,35.888888888888886,9.777777777777775C35.888888888888886,9.499999999999996,35.94444444444444,9.33333333333333,36.05555555555556,9.166666666666664C36.166666666666664,8.999999999999996,36.388888888888886,8.944444444444441,36.611111111111114,8.944444444444441C36.833333333333336,8.944444444444441,36.94444444444444,8.944444444444441,37.111111111111114,9.055555555555552C37.27777777777778,9.166666666666664,37.333333333333336,9.33333333333333,37.333333333333336,9.555555555555552C37.333333333333336,9.777777777777775,37.22222222222222,9.999999999999996,37,10.222222222222218C37,10.222222222222218,37.05555555555556,10.277777777777775,37.05555555555556,10.277777777777775C37.44444444444444,10.277777777777775,37.833333333333336,9.722222222222218,38.166666666666664,8.555555555555552C38.27777777777778,8.055555555555552,38.388888888888886,7.722222222222219,38.44444444444444,7.444444444444441C38.5,7.166666666666663,38.55555555555556,6.9999999999999964,38.55555555555556,6.944444444444441C38.55555555555556,6.944444444444441,39.611111111111114,2.8888888888888857,39.611111111111114,2.8888888888888857C39.27777777777778,3.111111111111108,38.888888888888886,3.499999999999997,38.388888888888886,4.111111111111108C38.388888888888886,4.111111111111108,38,3.666666666666664,38,3.666666666666664C38.27777777777778,3.277777777777775,38.611111111111114,2.8888888888888857,39,2.499999999999997C39.611111111111114,1.944444444444441,39.55555555555556,1.944444444444441,39.72222222222222,1.777777777777775C40.22222222222222,0.277777777777775,40.72222222222222,-0.8333333333333357,41.22222222222222,-1.555555555555558C41.72222222222222,-2.3333333333333357,42.22222222222222,-2.9444444444444464,42.833333333333336,-3.388888888888891C42.833333333333336,-3.388888888888891,43.111111111111114,-3.1111111111111143,43.111111111111114,-3.1111111111111143C42.72222222222222,-2.6111111111111143,42.333333333333336,-2.055555555555559,42.05555555555556,-1.2777777777777803C41.77777777777778,-0.5000000000000027,41.611111111111114,0.1666666666666643,41.5,0.8888888888888857C42.22222222222222,0.611111111111108,42.888888888888886,0.49999999999999734,43.5,0.49999999999999734C44.111111111111114,0.49999999999999734,44.666666666666664,0.7222222222222197,45.05555555555556,1.111111111111108C45.44444444444444,1.4999999999999973,45.666666666666664,1.9999999999999973,45.666666666666664,2.666666666666664C45.666666666666664,3.3333333333333304,45.5,3.8888888888888857,45.22222222222222,4.4999999999999964C44.94444444444444,5.111111111111108,44.55555555555556,5.555555555555553,44,5.944444444444441C44,5.944444444444441,44,5.944444444444441,44,5.944444444444441M41.44444444444444,1.777777777777775C41.44444444444444,1.777777777777775,40.666666666666664,5.055555555555553,40.666666666666664,5.055555555555553C40.77777777777778,5.33333333333333,41,5.555555555555553,41.27777777777778,5.666666666666663C41.55555555555556,5.777777777777775,41.888888888888886,5.83333333333333,42.22222222222222,5.83333333333333C42.55555555555556,5.83333333333333,42.94444444444444,5.722222222222219,43.22222222222222,5.388888888888886C43.77777777777778,4.83333333333333,44.05555555555556,4.111111111111108,44.05555555555556,3.166666666666664C44.05555555555556,2.3333333333333304,43.833333333333336,1.777777777777775,43.388888888888886,1.4999999999999973C43.22222222222222,1.3888888888888857,42.94444444444444,1.3333333333333304,42.666666666666664,1.3333333333333304C42.388888888888886,1.3333333333333304,42,1.444444444444442,41.44444444444444,1.777777777777775C41.44444444444444,1.777777777777775,41.44444444444444,1.777777777777775,41.44444444444444,1.777777777777775M47.55555555555556,6.277777777777775C47.388888888888886,6.111111111111108,47.27777777777778,5.888888888888886,47.27777777777778,5.611111111111108C47.27777777777778,5.33333333333333,47.388888888888886,4.888888888888886,47.55555555555556,4.388888888888886C47.72222222222222,3.8888888888888857,47.83333333333333,3.4444444444444415,48,2.999999999999997C48.166666666666664,2.5555555555555527,48.22222222222222,2.3333333333333304,48.22222222222222,2.1666666666666634C48.22222222222222,1.9999999999999973,48.22222222222222,1.944444444444441,48.11111111111111,1.944444444444441C47.888888888888886,1.944444444444441,47.5,2.3888888888888857,47,3.277777777777775C47,3.277777777777775,46.33333333333333,2.8888888888888857,46.33333333333333,2.8888888888888857C47.27777777777778,1.277777777777775,48.166666666666664,0.49999999999999734,48.94444444444444,0.49999999999999734C49.5,0.49999999999999734,49.77777777777778,0.8333333333333304,49.77777777777778,1.4999999999999973C49.77777777777778,1.7222222222222197,49.72222222222222,2.0555555555555527,49.61111111111111,2.499999999999997C49.61111111111111,2.499999999999997,48.888888888888886,4.4999999999999964,48.888888888888886,4.4999999999999964C48.83333333333333,4.666666666666663,48.77777777777778,4.83333333333333,48.77777777777778,4.9999999999999964C48.77777777777778,5.166666666666663,48.83333333333333,5.22222222222222,48.94444444444444,5.22222222222222C49.166666666666664,5.22222222222222,49.55555555555556,4.83333333333333,50.166666666666664,3.999999999999997C50.166666666666664,3.999999999999997,50.61111111111111,4.388888888888886,50.61111111111111,4.388888888888886C50.27777777777778,5.055555555555553,49.83333333333333,5.555555555555553,49.33333333333333,5.944444444444441C48.83333333333333,6.33333333333333,48.44444444444444,6.555555555555553,48.166666666666664,6.555555555555553C47.888888888888886,6.555555555555553,47.72222222222222,6.444444444444441,47.55555555555556,6.277777777777775C47.55555555555556,6.277777777777775,47.55555555555556,6.277777777777775,47.55555555555556,6.277777777777775M50.72222222222222,-1.6666666666666696C50.55555555555556,-1.4444444444444473,50.27777777777778,-1.3333333333333357,50,-1.3333333333333357C49.72222222222222,-1.3333333333333357,49.5,-1.4444444444444473,49.33333333333333,-1.6111111111111143C49.166666666666664,-1.7777777777777803,49.11111111111111,-2.0000000000000036,49.11111111111111,-2.2777777777777803C49.11111111111111,-2.555555555555559,49.22222222222222,-2.8333333333333357,49.388888888888886,-3.055555555555559C49.55555555555556,-3.2777777777777803,49.83333333333333,-3.3333333333333357,50.11111111111111,-3.3333333333333357C50.388888888888886,-3.3333333333333357,50.55555555555556,-3.222222222222225,50.72222222222222,-3.055555555555559C50.888888888888886,-2.888888888888891,50.94444444444444,-2.6666666666666696,50.94444444444444,-2.388888888888891C50.94444444444444,-2.1111111111111143,50.888888888888886,-1.888888888888891,50.72222222222222,-1.6666666666666696C50.72222222222222,-1.6666666666666696,50.72222222222222,-1.6666666666666696,50.72222222222222,-1.6666666666666696M55.88888888888888,5.166666666666663C55.222222222222214,6.055555555555553,54.38888888888888,6.555555555555553,53.444444444444436,6.555555555555553C52.83333333333332,6.555555555555553,52.27777777777777,6.277777777777775,51.83333333333332,5.83333333333333C51.38888888888888,5.388888888888886,51.16666666666666,4.777777777777775,51.16666666666666,4.055555555555553C51.16666666666666,3.111111111111108,51.55555555555554,2.277777777777775,52.27777777777777,1.5555555555555527C52.99999999999999,0.8333333333333304,53.83333333333332,0.49999999999999734,54.722222222222214,0.49999999999999734C55.16666666666666,0.49999999999999734,55.6111111111111,0.611111111111108,55.944444444444436,0.777777777777775C56.27777777777777,0.944444444444442,56.444444444444436,1.1666666666666634,56.55555555555554,1.4999999999999973C56.83333333333332,0.277777777777775,57.27777777777777,-1.1666666666666696,57.83333333333332,-2.7777777777777803C58.38888888888888,-4.388888888888891,58.944444444444436,-5.66666666666667,59.444444444444436,-6.611111111111114C59.444444444444436,-6.611111111111114,60.999999999999986,-6.611111111111114,60.999999999999986,-6.611111111111114C60.38888888888888,-5.388888888888891,59.6111111111111,-3.388888888888891,58.722222222222214,-0.5000000000000027C57.83333333333332,2.3888888888888857,57.38888888888888,4.166666666666663,57.38888888888888,4.888888888888886C57.38888888888888,5.166666666666663,57.444444444444436,5.22222222222222,57.55555555555554,5.22222222222222C57.83333333333332,5.22222222222222,58.27777777777777,4.83333333333333,58.83333333333332,3.999999999999997C58.83333333333332,3.999999999999997,59.222222222222214,4.388888888888886,59.222222222222214,4.388888888888886C58.83333333333332,5.111111111111108,58.38888888888888,5.666666666666663,57.944444444444436,5.9999999999999964C57.49999999999999,6.33333333333333,57.05555555555554,6.555555555555553,56.77777777777777,6.555555555555553C56.49999999999999,6.555555555555553,56.27777777777777,6.444444444444441,56.1111111111111,6.222222222222219C55.944444444444436,5.9999999999999964,55.88888888888888,5.722222222222219,55.88888888888888,5.33333333333333C55.88888888888888,5.33333333333333,55.88888888888888,5.277777777777775,55.88888888888888,5.277777777777775C55.88888888888888,5.277777777777775,55.88888888888888,5.166666666666663,55.88888888888888,5.166666666666663C55.88888888888888,5.166666666666663,55.88888888888888,5.166666666666663,55.88888888888888,5.166666666666663M52.944444444444436,3.999999999999997C52.944444444444436,5.055555555555553,53.33333333333332,5.555555555555553,54.16666666666666,5.555555555555553C54.944444444444436,5.555555555555553,55.49999999999999,5.055555555555553,55.99999999999999,4.055555555555553C56.222222222222214,3.5555555555555527,56.33333333333332,3.166666666666664,56.33333333333332,2.8888888888888857C56.33333333333332,1.8333333333333304,55.944444444444436,1.3333333333333304,55.16666666666666,1.3333333333333304C54.6111111111111,1.3333333333333304,54.1111111111111,1.5555555555555527,53.66666666666666,2.0555555555555527C53.222222222222214,2.5555555555555527,52.944444444444436,3.222222222222219,52.944444444444436,3.999999999999997C52.944444444444436,3.999999999999997,52.944444444444436,3.999999999999997,52.944444444444436,3.999999999999997M61.49999999999999,4.444444444444441C61.55555555555555,5.166666666666663,62.1111111111111,5.611111111111108,63.05555555555555,5.611111111111108C63.38888888888888,5.611111111111108,63.77777777777777,5.4999999999999964,64.16666666666666,5.277777777777775C64.55555555555554,5.055555555555553,64.88888888888889,4.83333333333333,65.1111111111111,4.555555555555553C65.1111111111111,4.555555555555553,65.49999999999999,4.83333333333333,65.49999999999999,4.83333333333333C64.94444444444444,5.722222222222219,64.1111111111111,6.277777777777775,62.944444444444436,6.4999999999999964C62.66666666666666,6.555555555555553,62.38888888888888,6.555555555555553,62.16666666666666,6.555555555555553C61.444444444444436,6.555555555555553,60.83333333333333,6.277777777777775,60.38888888888888,5.83333333333333C59.944444444444436,5.388888888888886,59.722222222222214,4.83333333333333,59.722222222222214,4.166666666666663C59.722222222222214,3.499999999999997,59.944444444444436,2.8333333333333304,60.33333333333333,2.277777777777775C60.722222222222214,1.7222222222222197,61.27777777777777,1.277777777777775,61.88888888888888,0.944444444444442C62.49999999999999,0.611111111111108,63.05555555555555,0.49999999999999734,63.66666666666666,0.49999999999999734C64.27777777777777,0.49999999999999734,64.77777777777777,0.611111111111108,65.22222222222221,0.8888888888888857C65.66666666666666,1.1666666666666634,65.94444444444443,1.5555555555555527,65.94444444444443,1.9999999999999973C65.94444444444443,2.4444444444444415,65.77777777777777,2.8888888888888857,65.49999999999999,3.222222222222219C65.22222222222221,3.5555555555555527,64.88888888888889,3.7777777777777746,64.44444444444444,3.9444444444444415C63.6111111111111,4.277777777777775,62.77777777777777,4.4999999999999964,61.944444444444436,4.4999999999999964C61.944444444444436,4.4999999999999964,61.49999999999999,4.444444444444441,61.49999999999999,4.444444444444441M61.444444444444436,3.9444444444444415C62.16666666666666,3.9444444444444415,62.77777777777777,3.7777777777777746,63.222222222222214,3.5555555555555527C63.66666666666666,3.3333333333333304,63.944444444444436,3.166666666666664,64.1111111111111,2.8888888888888857C64.27777777777777,2.611111111111108,64.38888888888889,2.3333333333333304,64.38888888888889,2.0555555555555527C64.38888888888889,1.777777777777775,64.33333333333333,1.5555555555555527,64.16666666666666,1.3888888888888857C63.99999999999999,1.2222222222222197,63.83333333333333,1.1666666666666634,63.66666666666666,1.1666666666666634C63.222222222222214,1.1666666666666634,62.88888888888888,1.3333333333333304,62.55555555555555,1.611111111111108C62.222222222222214,1.8888888888888857,61.88888888888888,2.277777777777775,61.722222222222214,2.666666666666664C61.55555555555555,3.0555555555555527,61.444444444444436,3.499999999999997,61.444444444444436,3.9444444444444415C61.444444444444436,3.9444444444444415,61.444444444444436,3.9444444444444415,61.444444444444436,3.9444444444444415M72,1.777777777777775C71.77777777777779,1.777777777777775,71.44444444444444,1.8888888888888857,71.11111111111111,2.2222222222222197C70.77777777777779,2.5555555555555527,70.44444444444444,2.9444444444444415,70.11111111111111,3.3888888888888857C69.61111111111111,4.111111111111108,69.05555555555556,4.9999999999999964,68.55555555555556,5.944444444444441C68.55555555555556,5.944444444444441,68.27777777777779,6.388888888888886,68.27777777777779,6.388888888888886C68.27777777777779,6.388888888888886,66.88888888888889,6.388888888888886,66.88888888888889,6.388888888888886C66.88888888888889,6.388888888888886,66.94444444444444,6.388888888888886,67.22222222222223,5.444444444444441C67.77777777777779,3.7777777777777746,68.05555555555556,2.777777777777775,68.05555555555556,2.4444444444444415C68.05555555555556,2.111111111111108,68,1.9999999999999973,67.88888888888889,1.9999999999999973C67.72222222222223,1.9999999999999973,67.5,2.2222222222222197,67.22222222222223,2.666666666666664C67.16666666666667,2.777777777777775,67.16666666666667,2.8333333333333304,67.11111111111111,2.8888888888888857C67.05555555555556,2.9444444444444415,67,2.999999999999997,66.94444444444444,3.111111111111108C66.88888888888889,3.222222222222219,66.88888888888889,3.277777777777775,66.88888888888889,3.277777777777775C66.88888888888889,3.277777777777775,66.22222222222223,2.8888888888888857,66.22222222222223,2.8888888888888857C66.72222222222223,2.0555555555555527,67.16666666666667,1.444444444444442,67.61111111111111,1.0555555555555527C68.05555555555556,0.6666666666666634,68.44444444444444,0.49999999999999734,68.88888888888889,0.49999999999999734C69.11111111111111,0.49999999999999734,69.27777777777779,0.5555555555555527,69.44444444444444,0.7222222222222197C69.61111111111111,0.8888888888888857,69.66666666666667,1.111111111111108,69.66666666666667,1.3333333333333304C69.66666666666667,1.5555555555555527,69.61111111111111,1.777777777777775,69.61111111111111,1.944444444444441C69.61111111111111,2.111111111111108,69.55555555555556,2.277777777777775,69.5,2.4444444444444415C69.44444444444444,2.611111111111108,69.44444444444444,2.777777777777775,69.38888888888889,2.999999999999997C69.33333333333334,3.222222222222219,69.27777777777779,3.3333333333333304,69.22222222222223,3.4444444444444415C69.16666666666667,3.611111111111108,69.22222222222223,3.666666666666664,69.11111111111111,3.9444444444444415C69.05555555555556,4.111111111111108,69,4.22222222222222,69,4.277777777777775C69.11111111111111,4.055555555555553,69.33333333333334,3.666666666666664,69.61111111111111,3.222222222222219C69.88888888888889,2.777777777777775,70,2.4444444444444415,70.11111111111111,2.3333333333333304C70.22222222222223,2.1666666666666634,70.27777777777779,2.1666666666666634,70.5,1.8888888888888857C70.66666666666667,1.6666666666666634,70.77777777777779,1.5555555555555527,70.88888888888889,1.444444444444442C70.88888888888889,1.444444444444442,71.27777777777779,1.0555555555555527,71.27777777777779,1.0555555555555527C71.44444444444444,0.8888888888888857,71.55555555555556,0.777777777777775,71.72222222222223,0.7222222222222197C72.11111111111111,0.5555555555555527,72.44444444444444,0.49999999999999734,72.77777777777779,0.49999999999999734C73.11111111111111,0.49999999999999734,73.38888888888889,0.5555555555555527,73.61111111111111,0.777777777777775C73.83333333333334,0.9999999999999973,73.94444444444444,1.2222222222222197,73.94444444444444,1.4999999999999973C73.94444444444444,1.777777777777775,73.83333333333334,1.944444444444441,73.66666666666667,2.1666666666666634C73.5,2.3888888888888857,73.33333333333334,2.499999999999997,73.11111111111111,2.499999999999997C72.88888888888889,2.499999999999997,72.72222222222223,2.3888888888888857,72.61111111111111,2.3333333333333304C72.5,2.277777777777775,72.38888888888889,2.2222222222222197,72.33333333333334,2.111111111111108C72.22222222222223,1.8888888888888857,72.11111111111111,1.777777777777775,72,1.777777777777775C72,1.777777777777775,72,1.777777777777775,72,1.777777777777775M86.27777777777777,6.388888888888886C86.27777777777777,6.388888888888886,85.5,6.388888888888886,85.5,6.388888888888886C85.77777777777777,5.111111111111108,86.33333333333333,2.111111111111108,87.22222222222223,-2.5000000000000036C87.22222222222223,-2.5000000000000036,87.72222222222223,-4.888888888888891,87.72222222222223,-4.888888888888891C86.88888888888889,-3.888888888888891,85.88888888888889,-2.555555555555559,84.72222222222223,-0.8333333333333357C84.72222222222223,-0.8333333333333357,79.88888888888889,6.388888888888886,79.88888888888889,6.388888888888886C79.88888888888889,6.388888888888886,78.05555555555556,6.388888888888886,78.05555555555556,6.388888888888886C78.44444444444444,5.611111111111108,78.88888888888889,4.444444444444441,79.38888888888889,2.8888888888888857C80.33333333333333,-0.11111111111111427,80.77777777777777,-2.4444444444444464,80.77777777777777,-4.111111111111114C80.77777777777777,-6.111111111111114,80.22222222222223,-7.111111111111114,79,-7.111111111111114C78.5,-7.111111111111114,78,-7.000000000000002,77.55555555555556,-6.722222222222225C77.11111111111111,-6.444444444444446,76.77777777777779,-6.111111111111114,76.5,-5.66666666666667C76.22222222222223,-5.222222222222225,76,-4.77777777777778,75.83333333333333,-4.222222222222225C75.5,-3.2777777777777803,75.33333333333333,-2.2777777777777803,75.33333333333333,-1.2777777777777803C75.33333333333333,-0.27777777777778034,75.5,0.6666666666666634,75.77777777777779,1.5555555555555527C76.05555555555556,2.4444444444444415,76.55555555555556,3.0555555555555527,77.22222222222223,3.499999999999997C77.22222222222223,3.499999999999997,76.72222222222223,3.8888888888888857,76.72222222222223,3.8888888888888857C76.05555555555556,3.3333333333333304,75.55555555555556,2.5555555555555527,75.22222222222223,1.611111111111108C74.88888888888889,0.6666666666666634,74.72222222222223,-0.22222222222222499,74.72222222222223,-1.0000000000000027C74.72222222222223,-1.7777777777777803,74.77777777777779,-2.5000000000000036,74.88888888888889,-3.055555555555559C75,-3.6111111111111143,75.16666666666667,-4.16666666666667,75.38888888888889,-4.722222222222225C75.61111111111111,-5.27777777777778,75.83333333333333,-5.77777777777778,76.16666666666667,-6.222222222222225C76.5,-6.66666666666667,76.94444444444444,-7.000000000000002,77.44444444444444,-7.27777777777778C77.94444444444444,-7.555555555555557,78.5,-7.66666666666667,79.11111111111111,-7.66666666666667C79.72222222222223,-7.66666666666667,80.33333333333333,-7.611111111111114,80.77777777777777,-7.388888888888891C81.22222222222223,-7.16666666666667,81.55555555555556,-6.888888888888891,81.83333333333333,-6.500000000000002C82.33333333333333,-5.77777777777778,82.55555555555556,-4.833333333333336,82.55555555555556,-3.6111111111111143C82.55555555555556,-1.722222222222225,81.88888888888889,0.8888888888888857,80.5,4.166666666666663C82.66666666666667,0.5555555555555527,84.33333333333333,-2.055555555555559,85.55555555555556,-3.6666666666666696C86.66666666666667,-5.111111111111114,87.72222222222223,-6.27777777777778,88.66666666666667,-7.055555555555557C88.66666666666667,-7.055555555555557,89.33333333333333,-6.722222222222225,89.33333333333333,-6.722222222222225C89.33333333333333,-6.722222222222225,87.55555555555556,4.666666666666663,87.55555555555556,4.666666666666663C88.94444444444444,3.722222222222219,90.16666666666667,2.5555555555555527,91.05555555555556,1.1666666666666634C91.94444444444444,-0.22222222222222499,92.55555555555556,-1.6666666666666696,92.83333333333333,-3.222222222222225C92.22222222222223,-3.5000000000000018,91.61111111111111,-3.9444444444444464,91.16666666666667,-4.444444444444446C90.72222222222223,-4.944444444444446,90.5,-5.388888888888891,90.5,-5.944444444444446C90.5,-6.500000000000002,90.61111111111111,-6.888888888888891,90.88888888888889,-7.222222222222225C91.16666666666667,-7.555555555555557,91.55555555555556,-7.66666666666667,91.94444444444444,-7.66666666666667C92.33333333333333,-7.66666666666667,92.66666666666667,-7.66666666666667,92.88888888888889,-7.500000000000002C93.11111111111111,-7.333333333333336,93.33333333333333,-7.111111111111114,93.44444444444444,-6.888888888888891C93.72222222222223,-6.388888888888891,93.77777777777777,-5.888888888888891,93.77777777777777,-5.27777777777778C93.77777777777777,-4.66666666666667,93.77777777777777,-4.111111111111114,93.66666666666667,-3.5000000000000018C94.11111111111111,-3.2777777777777803,94.61111111111111,-3.055555555555559,95.16666666666667,-2.9444444444444464C95.16666666666667,-2.9444444444444464,95,-2.5000000000000036,95,-2.5000000000000036C94.16666666666667,-2.722222222222225,93.66666666666667,-2.8333333333333357,93.5,-2.888888888888891C93.11111111111111,-0.9444444444444473,92.33333333333333,0.777777777777775,91.11111111111111,2.3888888888888857C89.88888888888889,3.999999999999997,88.27777777777777,5.33333333333333,86.27777777777777,6.388888888888886C86.27777777777777,6.388888888888886,86.27777777777777,6.388888888888886,86.27777777777777,6.388888888888886M91.55555555555556,-5.888888888888891C91.61111111111111,-5.16666666666667,92.11111111111111,-4.444444444444446,92.94444444444444,-3.8333333333333357C93.05555555555556,-4.333333333333336,93.11111111111111,-4.77777777777778,93.11111111111111,-5.111111111111114C93.11111111111111,-5.111111111111114,93.11111111111111,-5.77777777777778,93.11111111111111,-5.77777777777778C93.11111111111111,-5.77777777777778,93.05555555555556,-6.055555555555557,93,-6.222222222222225C92.94444444444444,-6.611111111111114,92.72222222222223,-6.77777777777778,92.38888888888889,-6.77777777777778C92.16666666666667,-6.77777777777778,91.94444444444444,-6.66666666666667,91.77777777777777,-6.500000000000002C91.61111111111111,-6.333333333333336,91.55555555555556,-6.16666666666667,91.55555555555556,-5.944444444444446C91.55555555555556,-5.944444444444446,91.55555555555556,-5.888888888888891,91.55555555555556,-5.888888888888891C91.55555555555556,-5.888888888888891,91.55555555555556,-5.888888888888891,91.55555555555556,-5.888888888888891M95.27777777777777,4.444444444444441C95.33333333333333,5.166666666666663,95.88888888888889,5.611111111111108,96.83333333333333,5.611111111111108C97.16666666666667,5.611111111111108,97.55555555555556,5.4999999999999964,97.94444444444444,5.277777777777775C98.33333333333333,5.055555555555553,98.66666666666667,4.83333333333333,98.88888888888889,4.555555555555553C98.88888888888889,4.555555555555553,99.27777777777777,4.83333333333333,99.27777777777777,4.83333333333333C98.72222222222223,5.722222222222219,97.88888888888889,6.277777777777775,96.72222222222223,6.4999999999999964C96.44444444444444,6.555555555555553,96.16666666666667,6.555555555555553,95.94444444444444,6.555555555555553C95.22222222222223,6.555555555555553,94.61111111111111,6.277777777777775,94.16666666666667,5.83333333333333C93.72222222222223,5.388888888888886,93.5,4.83333333333333,93.5,4.166666666666663C93.5,3.499999999999997,93.72222222222223,2.8333333333333304,94.11111111111111,2.277777777777775C94.5,1.7222222222222197,95.05555555555556,1.277777777777775,95.66666666666667,0.944444444444442C96.27777777777777,0.611111111111108,96.83333333333333,0.49999999999999734,97.44444444444444,0.49999999999999734C98.05555555555556,0.49999999999999734,98.55555555555556,0.611111111111108,99,0.8888888888888857C99.44444444444444,1.1666666666666634,99.72222222222223,1.5555555555555527,99.72222222222223,1.9999999999999973C99.72222222222223,2.4444444444444415,99.55555555555556,2.8888888888888857,99.27777777777777,3.222222222222219C99,3.5555555555555527,98.66666666666667,3.7777777777777746,98.22222222222223,3.9444444444444415C97.38888888888889,4.277777777777775,96.55555555555556,4.4999999999999964,95.72222222222223,4.4999999999999964C95.72222222222223,4.4999999999999964,95.27777777777777,4.444444444444441,95.27777777777777,4.444444444444441M95.22222222222223,3.9444444444444415C95.94444444444444,3.9444444444444415,96.55555555555556,3.7777777777777746,97,3.5555555555555527C97.44444444444444,3.3333333333333304,97.72222222222223,3.166666666666664,97.88888888888889,2.8888888888888857C98.05555555555556,2.611111111111108,98.16666666666667,2.3333333333333304,98.16666666666667,2.0555555555555527C98.16666666666667,1.777777777777775,98.11111111111111,1.5555555555555527,97.94444444444444,1.3888888888888857C97.77777777777777,1.2222222222222197,97.61111111111111,1.1666666666666634,97.44444444444444,1.1666666666666634C97,1.1666666666666634,96.66666666666667,1.3333333333333304,96.33333333333333,1.611111111111108C96,1.8888888888888857,95.66666666666667,2.277777777777775,95.5,2.666666666666664C95.33333333333333,3.0555555555555527,95.22222222222223,3.499999999999997,95.22222222222223,3.9444444444444415C95.22222222222223,3.9444444444444415,95.22222222222223,3.9444444444444415,95.22222222222223,3.9444444444444415M104.77777777777777,6.166666666666663C104.27777777777777,6.388888888888886,103.66666666666666,6.555555555555553,103,6.555555555555553C102.33333333333333,6.555555555555553,101.72222222222221,6.33333333333333,101.22222222222221,5.944444444444441C100.72222222222221,5.555555555555553,100.5,4.9999999999999964,100.5,4.388888888888886C100.5,4.33333333333333,100.55555555555556,4.166666666666663,100.55555555555556,3.9444444444444415C100.83333333333333,2.1666666666666634,101.27777777777777,0.1666666666666643,102,-1.9444444444444464C102.72222222222221,-4.055555555555559,103.44444444444444,-5.611111111111114,104.27777777777777,-6.66666666666667C104.27777777777777,-6.66666666666667,105.94444444444444,-6.66666666666667,105.94444444444444,-6.66666666666667C105.44444444444444,-6.111111111111114,104.83333333333333,-5.000000000000002,104.16666666666666,-3.222222222222225C103.5,-1.4444444444444473,102.94444444444444,0.3333333333333304,102.5,2.0555555555555527C103.27777777777777,0.9999999999999973,104.16666666666666,0.49999999999999734,105.16666666666666,0.49999999999999734C105.77777777777777,0.49999999999999734,106.27777777777777,0.7222222222222197,106.61111111111111,1.111111111111108C106.94444444444444,1.4999999999999973,107.11111111111111,1.9999999999999973,107.11111111111111,2.5555555555555527C107.11111111111111,3.111111111111108,107,3.5555555555555527,106.83333333333333,3.999999999999997C106.66666666666666,4.444444444444441,106.38888888888889,4.83333333333333,106.05555555555556,5.22222222222222C105.72222222222221,5.611111111111108,105.27777777777777,5.944444444444441,104.77777777777777,6.166666666666663C104.77777777777777,6.166666666666663,104.77777777777777,6.166666666666663,104.77777777777777,6.166666666666663M102.22222222222221,3.9444444444444415C102.16666666666666,4.22222222222222,102.16666666666666,4.4999999999999964,102.16666666666666,4.777777777777775C102.16666666666666,5.055555555555553,102.27777777777777,5.277777777777775,102.44444444444444,5.555555555555553C102.61111111111111,5.83333333333333,102.88888888888889,5.944444444444441,103.27777777777777,5.944444444444441C103.66666666666666,5.944444444444441,104.05555555555556,5.777777777777775,104.38888888888889,5.444444444444441C105,4.777777777777775,105.33333333333333,3.8888888888888857,105.33333333333333,2.8333333333333304C105.33333333333333,2.3888888888888857,105.27777777777777,1.9999999999999973,105.11111111111111,1.7222222222222197C104.94444444444444,1.444444444444442,104.72222222222221,1.3333333333333304,104.38888888888889,1.3333333333333304C104.05555555555556,1.3333333333333304,103.66666666666666,1.5555555555555527,103.22222222222221,2.0555555555555527C102.77777777777777,2.5555555555555527,102.44444444444444,3.166666666666664,102.22222222222221,3.9444444444444415C102.22222222222221,3.9444444444444415,102.22222222222221,3.9444444444444415,102.22222222222221,3.9444444444444415"/> </g> </g> </g> </g> </svg>